<?xml version="1.0" encoding="UTF-8"?>
<svg version="1.1" xmlns="http://www.w3.org/2000/svg" width="512" height="512">
<path d="M0 0 C1.19831389 -0.00307895 1.19831389 -0.00307895 2.42083615 -0.0062201 C5.12040179 -0.01191255 7.81991677 -0.0104301 10.51948738 -0.00901413 C12.46541946 -0.01159647 14.411351 -0.01460926 16.3572818 -0.01801753 C21.72239618 -0.02610603 27.08749718 -0.02787813 32.45261693 -0.028615 C38.23185859 -0.03046232 44.01109325 -0.03800796 49.79033089 -0.04475021 C62.43471286 -0.05834664 75.07909168 -0.06436014 87.72347975 -0.06876087 C95.61341068 -0.07152078 103.50334039 -0.07575763 111.39327049 -0.08026505 C133.22359013 -0.09245884 155.05390861 -0.10279372 176.88423157 -0.10614014 C178.2962006 -0.10636177 179.70816962 -0.10658355 181.12013865 -0.10680549 C182.53554659 -0.10702613 183.95095452 -0.10724661 185.36636245 -0.10746694 C188.20598849 -0.10790949 191.04561452 -0.10835661 193.88524055 -0.10880661 C194.9413355 -0.1089707 194.9413355 -0.1089707 196.0187657 -0.1091381 C218.85663633 -0.11277008 241.69447524 -0.12869549 264.53233372 -0.15199697 C288.66870355 -0.17657839 312.80505512 -0.19030543 336.94143784 -0.19150805 C350.10230756 -0.19242618 363.26313575 -0.19821318 376.42399406 -0.21632767 C387.62821076 -0.23169437 398.83237309 -0.23686942 410.03659831 -0.22858956 C415.75663221 -0.22467102 421.47655651 -0.22567118 427.19657707 -0.23964691 C432.42854578 -0.25231371 437.66032173 -0.25125228 442.89228989 -0.2390562 C444.78931748 -0.23708662 446.68635839 -0.24023523 448.58336721 -0.24890056 C451.15420383 -0.25990432 453.72434942 -0.25256863 456.29516602 -0.24050903 C457.41005367 -0.25190182 457.41005367 -0.25190182 458.54746431 -0.26352477 C462.95389948 -0.21864141 465.77012533 0.41252929 469.27342415 3.13142776 C470.64511653 5.87481253 470.40142636 8.05671601 470.40485191 11.12915993 C470.40869306 12.4160482 470.4125342 13.70293647 470.41649175 15.02882135 C470.41571141 16.47044338 470.4148326 17.91206537 470.41386604 19.35368729 C470.41644814 20.87461473 470.41946086 22.39554149 470.42286944 23.91646731 C470.43096094 28.11141029 470.43273021 32.30633617 470.43346691 36.50128603 C470.43531372 41.01943836 470.44285913 45.53758173 470.44960213 50.05572891 C470.46320089 59.94192618 470.46921247 69.82811941 470.47361279 79.71432447 C470.47637241 85.88308009 470.48060923 92.05183413 470.48511696 98.22058868 C470.49731128 115.28816441 470.50761051 132.35573887 470.51099205 149.42331886 C470.51121162 150.51629092 470.51143118 151.60926299 470.5116574 152.73535541 C470.51187568 153.83099318 470.51209396 154.92663096 470.51231885 156.05546987 C470.51276232 158.27577615 470.51320888 160.49608243 470.51365852 162.7163887 C470.51387995 163.81774531 470.51410138 164.91910191 470.51432952 166.05383296 C470.51827934 183.9083352 470.53573823 201.76279667 470.55901805 219.61728315 C470.5827067 237.9326084 470.59519275 256.24791317 470.59635997 274.563254 C470.59727809 284.85297275 470.60306492 295.14263838 470.62117958 305.43234253 C470.63654701 314.1926151 470.64172094 322.95281813 470.63344148 331.71310161 C470.62952311 336.18545194 470.63052209 340.65766209 470.64449883 345.12999535 C470.65716695 349.22087547 470.65610318 353.31150909 470.64390811 357.40238853 C470.64193874 358.88556874 470.64508625 360.368766 470.65375248 361.8519222 C470.66475735 363.86192439 470.65561216 365.87200714 470.64536095 367.88201332 C470.64595803 369.00034471 470.64655512 370.1186761 470.64717031 371.27089632 C470.22673328 374.4887845 469.54692154 375.84746945 467.27342415 378.13142776 C463.64344637 379.34142036 460.32537211 379.27179473 456.5468483 379.26285553 C455.74797237 379.26490816 454.94909644 379.2669608 454.12601215 379.26907563 C451.42644651 379.27476808 448.72693153 379.27328563 446.02736092 379.27186966 C444.08142884 379.274452 442.1354973 379.27746479 440.18956649 379.28087306 C434.82445212 379.28896156 429.45935111 379.29073366 424.09423137 379.29147053 C418.31498971 379.29331785 412.53575504 379.30086349 406.75651741 379.30760574 C394.11213543 379.32120217 381.46775662 379.32721567 368.82336855 379.3316164 C360.93343761 379.33437631 353.04350791 379.33861316 345.1535778 379.34312057 C323.32325817 379.35531437 301.49293968 379.36564924 279.66261673 379.36899567 C278.2506477 379.3692173 276.83867867 379.36943908 275.42670964 379.36966102 C274.01130171 379.36988166 272.59589378 379.37010214 271.18048584 379.37032247 C268.34085981 379.37076502 265.50123378 379.37121214 262.66160774 379.37166214 C261.6055128 379.37182623 261.6055128 379.37182623 260.5280826 379.37199363 C237.69021197 379.37562561 214.85237306 379.39155102 192.01451457 379.4148525 C167.87814475 379.43943392 143.74179318 379.45316096 119.60541046 379.45436358 C106.44454073 379.45528171 93.28371254 379.46106871 80.12285423 379.4791832 C68.91863754 379.4945499 57.71447521 379.49972495 46.51024999 379.49144509 C40.79021609 379.48752655 35.07029178 379.48852671 29.35027122 379.50250244 C24.11830252 379.51516924 18.88652657 379.51410781 13.65455841 379.50191173 C11.75753082 379.49994215 9.8604899 379.50309076 7.96348108 379.51175609 C5.39264447 379.52275985 2.82249888 379.51542416 0.25168228 379.50336456 C-0.86320537 379.51475735 -0.86320537 379.51475735 -2.00061601 379.5263803 C-6.40705118 379.48149694 -9.22327703 378.85032624 -12.72657585 376.13142776 C-14.09826824 373.388043 -13.85457806 371.20613952 -13.85800362 368.1336956 C-13.86184476 366.84680733 -13.86568591 365.55991906 -13.86964345 364.23403418 C-13.86886311 362.79241215 -13.86798431 361.35079016 -13.86701775 359.90916824 C-13.86959984 358.3882408 -13.87261256 356.86731404 -13.87602115 355.34638822 C-13.88411265 351.15144524 -13.88588191 346.95651936 -13.88661861 342.7615695 C-13.88846543 338.24341717 -13.89601083 333.72527379 -13.90275383 329.20712662 C-13.91635259 319.32092935 -13.92236417 309.43473612 -13.92676449 299.54853106 C-13.92952412 293.37977544 -13.93376093 287.2110214 -13.93826866 281.04226685 C-13.95046298 263.97469112 -13.96076221 246.90711666 -13.96414375 229.83953667 C-13.96436332 228.7465646 -13.96458289 227.65359254 -13.9648091 226.52750012 C-13.96502738 225.43186234 -13.96524566 224.33622457 -13.96547055 223.20738566 C-13.96591402 220.98707938 -13.96636059 218.7667731 -13.96681023 216.54646683 C-13.96703166 215.44511022 -13.96725309 214.34375362 -13.96748123 213.20902257 C-13.97143104 195.35452033 -13.98888994 177.50005886 -14.01216975 159.64557238 C-14.0358584 141.33024713 -14.04834446 123.01494236 -14.04951167 104.69960153 C-14.0504298 94.40988278 -14.05621663 84.12021715 -14.07433128 73.830513 C-14.08969871 65.07024043 -14.09487264 56.3100374 -14.08659318 47.54975392 C-14.08267482 43.07740359 -14.0836738 38.60519344 -14.09765053 34.13286018 C-14.11031865 30.04198006 -14.10925489 25.95134644 -14.09705982 21.860467 C-14.09509045 20.37728679 -14.09823796 18.89408953 -14.10690418 17.41093333 C-14.11790906 15.40093114 -14.10876386 13.39084839 -14.09851265 11.38084221 C-14.09910974 10.26251082 -14.09970683 9.14417943 -14.10032201 7.99195921 C-13.67988498 4.77407103 -13.00007324 3.41538608 -10.72657585 1.13142776 C-7.09659808 -0.07856483 -3.77852382 -0.0089392 0 0 Z " fill="#020202" transform="translate(27.72657585144043,74.86857223510742)"/>
<path d="M0 0 C7.92 0 15.84 0 24 0 C24.103125 3.031875 24.20625 6.06375 24.3125 9.1875 C24.38078003 10.60712036 24.38078003 10.60712036 24.45043945 12.05541992 C24.52464875 16.56590889 24.50791299 18.38226799 21.54296875 21.98828125 C20.28419922 22.98408203 20.28419922 22.98408203 19 24 C17.26428218 27.47143564 17.53354207 31.20443818 18 35 C20.06723049 38.98680167 22.21516697 41.61569183 26 44 C30.88547094 44.89486349 34.95770878 44.49271949 39.4375 42.375 C43.34153805 38.75662327 44.77858855 35.77129163 45.4375 30.5 C44.81061324 25.48490592 42.51371017 22.51371017 39 19 C39 12.73 39 6.46 39 0 C52.2 0 65.4 0 79 0 C79 19 79 19 74 25 C72.46402546 28.07194908 72.7734962 30.60244293 73 34 C74.81397473 39.13959507 77.08375972 41.63292134 82 44 C86.26652255 44.66970107 89.79534134 44.48186346 93.8125 42.875 C97.17789571 39.9903751 99.59047431 37.3082357 100.38671875 32.8203125 C100.65041185 27.41915041 99.58882185 24.22214335 96 20 C95.34 19.67 94.68 19.34 94 19 C94 12.73 94 6.46 94 0 C107.2 0 120.4 0 134 0 C134 19 134 19 129 25 C127.8154641 30.2384445 128.39676786 34.77199171 130.75 39.5625 C133.46503764 42.50379078 135.41122264 43.80107991 139.40234375 44.30078125 C146.23019254 44.37810578 146.23019254 44.37810578 152 41 C155.37696793 37.15724339 155.49931841 33.36351858 155.3671875 28.4453125 C154.75892358 24.39453362 152.88875122 21.88875122 150 19 C150 12.73 150 6.46 150 0 C162.87 0 175.74 0 189 0 C189 19 189 19 185 24 C183.27063892 27.45872216 183.64920608 31.21142571 184 35 C185.22931584 38.49384502 186.33537127 40.39579206 189.0625 42.875 C193.42205494 44.54461678 197.39328969 44.64966427 202 44 C206.1276867 42.12377877 207.62018795 40.63710408 209.9375 36.75 C211.13339811 32.52918314 211.60915084 29.13892162 210 25 C208.35 23.02 206.7 21.04 205 19 C205 12.73 205 6.46 205 0 C218.2 0 231.4 0 245 0 C245 6.27 245 12.54 245 19 C243.35 20.65 241.7 22.3 240 24 C238.26428218 27.47143564 238.53354207 31.20443818 239 35 C241.06723049 38.98680167 243.21516697 41.61569183 247 44 C251.88547094 44.89486349 255.95770878 44.49271949 260.4375 42.375 C264.34153805 38.75662327 265.77858855 35.77129163 266.4375 30.5 C265.81061324 25.48490592 263.51371017 22.51371017 260 19 C260 12.73 260 6.46 260 0 C273.2 0 286.4 0 300 0 C300 19 300 19 295 25 C293.46402546 28.07194908 293.7734962 30.60244293 294 34 C295.81397473 39.13959507 298.08375972 41.63292134 303 44 C307.26652255 44.66970107 310.79534134 44.48186346 314.8125 42.875 C318.92254327 39.35210577 320.81178122 36.48222287 321.5 31.0625 C321.27434213 26.54934268 319.55017399 23.67525075 317 20 C316.34 19.67 315.68 19.34 315 19 C315 12.73 315 6.46 315 0 C328.2 0 341.4 0 355 0 C355 19 355 19 350 25 C348.8154641 30.2384445 349.39676786 34.77199171 351.75 39.5625 C354.46503764 42.50379078 356.41122264 43.80107991 360.40234375 44.30078125 C367.23019254 44.37810578 367.23019254 44.37810578 373 41 C376.37696793 37.15724339 376.49931841 33.36351858 376.3671875 28.4453125 C375.75892358 24.39453362 373.88875122 21.88875122 371 19 C371 12.73 371 6.46 371 0 C383.87 0 396.74 0 410 0 C410 19 410 19 406 24 C404.27063892 27.45872216 404.64920608 31.21142571 405 35 C406.22931584 38.49384502 407.33537127 40.39579206 410.0625 42.875 C414.42205494 44.54461678 418.39328969 44.64966427 423 44 C427.1276867 42.12377877 428.62018795 40.63710408 430.9375 36.75 C432.13339811 32.52918314 432.60915084 29.13892162 431 25 C430.16082031 24.13246094 429.32164062 23.26492187 428.45703125 22.37109375 C424.94511452 18.35052409 425.44026115 14.2159324 425.6875 9.125 C425.790625 6.11375 425.89375 3.1025 426 0 C434.58 0 443.16 0 452 0 C452 90.09 452 180.18 452 273 C437.645 273.495 437.645 273.495 423 274 C416.07 274.99 409.14 275.98 402 277 C402 244.33 402 211.66 402 178 C405.67410314 177.08147422 408.82868113 176.7472399 412.59375 176.53515625 C413.87121094 176.45716797 415.14867187 176.37917969 416.46484375 176.29882812 C418.48566551 176.17913216 420.50655169 176.06213795 422.52783203 175.95043945 C424.48775181 175.84054855 426.44702103 175.71924311 428.40625 175.59765625 C429.57478516 175.53070557 430.74332031 175.46375488 431.94726562 175.39477539 C434.8174563 175.0236063 436.60128796 174.58080801 439 173 C440.46107777 170.07784445 440.4160174 168.24572066 440 165 C438.16514132 162.79634082 436.53260029 161.14028778 434.375 159.3125 C433.49690674 158.53712891 433.49690674 158.53712891 432.60107422 157.74609375 C427.42476663 153.22939013 422.04502287 148.96829017 416.59765625 144.78515625 C414.13546661 142.89297393 411.71109799 140.96350377 409.30859375 138.99609375 C394.99358835 127.28023909 379.54340194 117.80532738 363.77734375 108.16015625 C357.36426925 104.23599087 350.99184887 100.24860654 344.625 96.25 C326.00755232 82.22927693 326.00755232 82.22927693 305 76 C298.52807041 79.1118456 296.42559892 84.10079545 293.375 90.375 C292.31834804 92.47363506 291.25970552 94.5712689 290.19921875 96.66796875 C289.66603027 97.73063965 289.1328418 98.79331055 288.58349609 99.88818359 C286.21532062 104.54201717 283.70945925 109.11568074 281.1875 113.6875 C277.91136861 119.64018822 274.66918759 125.60649518 271.5078125 131.62109375 C265.10524873 143.77869413 258.51916587 155.76049775 251.375 167.5 C251.02082001 168.0825354 250.66664001 168.6650708 250.30172729 169.26525879 C246.65052568 175.25248077 242.91821813 181.17511068 239 186.9921875 C238.38592285 187.90806641 237.7718457 188.82394531 237.13916016 189.76757812 C235.99934639 191.45221846 234.84374456 193.12633177 233.66943359 194.78710938 C230.63355253 199.19156844 230.63355253 199.19156844 230.0625 204.41796875 C230.84963237 207.04536934 230.84963237 207.04536934 232.625 208.9375 C238.51016412 211.57033658 246.4467892 207.76585077 252.25 205.9375 C254.02485139 205.38030887 255.80085017 204.8267558 257.578125 204.27734375 C258.35575195 204.03234131 259.13337891 203.78733887 259.93457031 203.53491211 C262 203 262 203 265 203 C265.2908565 209.34535943 265.57484237 215.69100214 265.85449219 222.03686523 C265.94998932 224.18667234 266.04694618 226.3364152 266.14550781 228.48608398 C266.76399827 242.00136265 267.14464986 255.47021554 267 269 C266.26571777 268.86070068 265.53143555 268.72140137 264.77490234 268.57788086 C239.79209486 264.08893816 215.53025364 268.68676755 191.0390625 273.890625 C152.76644859 281.96700414 118.86620055 277.09240721 80.83398438 269.73046875 C53.60551196 264.48568667 26.98838657 264.25290336 0 271 C0 181.57 0 92.14 0 0 Z " fill="#FDF7F1" transform="translate(30,91)"/>
<path d="M0 0 C11.19563744 2.30035759 22.43389247 4.2184145 33.72802734 5.96484375 C34.46327637 6.0848877 35.19852539 6.20493164 35.95605469 6.32861328 C45.79030094 7.91295403 55.52620279 8.16210555 65.47802734 8.21484375 C67.29016724 8.2288623 67.29016724 8.2288623 69.13891602 8.24316406 C80.96565113 8.20114792 92.10734481 6.10411967 103.66162109 3.80078125 C161.16890212 -7.64906869 161.16890212 -7.64906869 182.72802734 -0.03515625 C184.62192376 1.85874016 183.92653944 5.18161796 183.97412109 7.703125 C184.00707123 9.09440706 184.04028267 10.48568294 184.07373047 11.87695312 C184.12107645 14.07571994 184.1654758 16.27446385 184.20483398 18.47338867 C184.24465308 20.59190764 184.29618622 22.7098988 184.34912109 24.828125 C184.37417725 26.09954346 184.3992334 27.37096191 184.42504883 28.6809082 C184.70576818 31.72358029 185.02544769 33.46589011 186.72802734 35.96484375 C189.22161502 37.21163759 190.88556325 37.08791695 193.67605591 37.08509827 C195.24521255 37.08716026 195.24521255 37.08716026 196.84606934 37.08926392 C197.99837036 37.08566864 199.15067139 37.08207336 200.33789062 37.07836914 C201.54762543 37.07851517 202.75736023 37.07866119 204.00375366 37.07881165 C207.32586755 37.07823331 210.64791972 37.0732093 213.97002268 37.06623769 C217.44004542 37.05999713 220.91006894 37.05939979 224.38009644 37.05821228 C230.95324133 37.05510104 237.52636963 37.04689044 244.09950721 37.03686279 C251.58187568 37.02569523 259.06424493 37.02018958 266.54661965 37.01516736 C281.94043183 37.00470766 297.33422745 36.98711222 312.72802734 36.96484375 C313.05660344 35.52480736 313.38284575 34.08423833 313.70809937 32.64344788 C313.89002523 31.84128877 314.0719511 31.03912966 314.25938988 30.2126627 C314.78317907 27.70030857 315.04022629 25.27450363 315.14208984 22.7109375 C315.18076172 21.83759766 315.21943359 20.96425781 315.25927734 20.06445312 C315.29021484 19.18595703 315.32115234 18.30746094 315.35302734 17.40234375 C315.39169922 16.48904297 315.43037109 15.57574219 315.47021484 14.63476562 C315.56332986 12.41164451 315.649149 10.18850762 315.72802734 7.96484375 C320.83770417 6.04871494 325.85375597 5.16237207 331.22802734 4.40234375 C332.13278809 4.27230957 333.03754883 4.14227539 333.96972656 4.00830078 C341.86788319 2.94391401 349.74407006 2.49064716 357.70654297 2.25561523 C358.58246094 2.22927002 359.45837891 2.2029248 360.36083984 2.17578125 C361.5193042 2.14943604 361.5193042 2.14943604 362.70117188 2.12255859 C364.93204252 2.03110409 364.93204252 2.03110409 367.72802734 0.96484375 C367.72802734 21.09484375 367.72802734 41.22484375 367.72802734 61.96484375 C217.90802734 61.96484375 68.08802734 61.96484375 -86.27197266 61.96484375 C-86.27197266 42.49484375 -86.27197266 23.02484375 -86.27197266 2.96484375 C-58.45669915 -9.39750003 -29.02867062 -5.97090563 0 0 Z " fill="#DAB173" transform="translate(115.27197265625,376.03515625)"/>
<path d="M0 0 C0.98582982 16.62864616 1.19689073 33.21962076 1.1875 49.875 C1.1882251 51.19108246 1.1889502 52.50716492 1.18969727 53.86312866 C1.19537034 78.94389047 0.35512855 103.95663369 -1 129 C-2.21298767 128.92894547 -3.42597534 128.85789093 -4.67572021 128.78468323 C-16.75931734 128.10921289 -28.79026586 127.86462269 -40.890625 127.90234375 C-42.70050008 127.9042164 -44.51037569 127.90563628 -46.32025146 127.90663147 C-51.00864137 127.91039009 -55.69699867 127.92016066 -60.38537598 127.93133545 C-65.19962117 127.9416955 -70.0138718 127.94615985 -74.828125 127.95117188 C-84.21876407 127.96179128 -93.60937929 127.97878407 -103 128 C-103.5277804 117.1672437 -104.04971259 106.33422188 -104.56460571 95.50084496 C-104.80398214 90.46803598 -105.04521549 85.43533169 -105.29101562 80.40283203 C-105.52908561 75.52708656 -105.76185644 70.651112 -105.99127197 65.77495193 C-106.07874927 63.93418325 -106.16799241 62.09349743 -106.25921631 60.25291061 C-106.92293887 46.82678177 -107.11064634 33.44202605 -107 20 C-98.52285753 17.29591256 -90.07115044 14.94885962 -81.375 13.0625 C-80.2082373 12.80799072 -79.04147461 12.55348145 -77.83935547 12.29125977 C-55.48729125 7.47537592 -33.09823066 3.88186871 -10.4375 0.91796875 C-9.72939178 0.82449158 -9.02128357 0.7310144 -8.29171753 0.63470459 C-5.50089735 0.27575417 -2.8176432 0 0 0 Z " fill="#2B9287" transform="translate(417,270)"/>
<path d="M0 0 C5.27663603 0.28412656 9.22348433 3.44486957 13.5 6.25 C15.21420921 7.35385061 16.92907611 8.45668039 18.64453125 9.55859375 C19.52963379 10.1294873 20.41473633 10.70038086 21.32666016 11.28857422 C25.58278298 14.0132702 29.88488967 16.66206586 34.1875 19.3125 C35.9428794 20.39816096 37.69808426 21.48410417 39.453125 22.5703125 C42.31443447 24.3403749 45.17667204 26.108874 48.04101562 27.87402344 C67.62579544 39.9511007 86.8840786 52.51416635 104 68 C104 68.33 104 68.66 104 69 C102.87207031 69.11069824 101.74414062 69.22139648 100.58203125 69.33544922 C96.31749769 69.75455349 92.05324454 70.17645657 87.7890625 70.59912109 C85.95840638 70.78019965 84.12767923 70.96056181 82.296875 71.14013672 C60.37340197 73.2916179 38.7090589 76.20081851 17.0625 80.3125 C15.84335403 80.54351913 15.84335403 80.54351913 14.59957886 80.77920532 C-2.04766967 83.94180427 -18.60603427 87.28667677 -34.87109375 92.08203125 C-38.13245976 93.03886148 -41.40077252 93.94674699 -44.6875 94.8125 C-45.64011719 95.06644531 -46.59273438 95.32039063 -47.57421875 95.58203125 C-50 96 -50 96 -53 95 C-52.65855957 94.42781738 -52.31711914 93.85563477 -51.96533203 93.26611328 C-38.24705242 70.24605882 -25.4843833 46.76827052 -12.86524963 23.13104248 C-11.47678372 20.53034325 -10.08725388 17.93021287 -8.69784546 15.33001709 C-7.70049414 13.46183982 -6.70529063 11.5925294 -5.71020508 9.72314453 C-5.10845459 8.59634277 -4.5067041 7.46954102 -3.88671875 6.30859375 C-3.08560669 4.80510376 -3.08560669 4.80510376 -2.26831055 3.27124023 C-1 1 -1 1 0 0 Z " fill="#FDDE88" transform="translate(339,184)"/>
<path d="M0 0 C5.75169329 3.90943771 9.40456581 9.03400994 11.59765625 15.61328125 C11.88297122 19.48333281 11.87539468 23.3588903 11.91015625 27.23828125 C11.95366211 28.82189453 11.95366211 28.82189453 11.99804688 30.4375 C12.07868871 40.44949375 9.40514126 47.44368646 2.578125 54.765625 C-8.43493326 65.04013497 -20.60381026 68.13945738 -35.28515625 67.89453125 C-40.10300621 67.67838724 -43.55099271 66.53799144 -47.40234375 63.61328125 C-48.94921875 62.56140625 -48.94921875 62.56140625 -50.52734375 61.48828125 C-57.87316944 54.96310638 -62.22625783 44.45678957 -62.90625 34.78125 C-63.23850787 22.41659819 -61.68492426 13.20146495 -53.15234375 3.67578125 C-38.31138693 -9.78614861 -16.59109307 -9.57697242 0 0 Z " fill="#040303" transform="translate(166.40234375,199.38671875)"/>
<path d="M0 0 C1.14408325 0.00737183 1.14408325 0.00737183 2.3112793 0.01489258 C9.09533483 0.15663594 14.21111432 0.70851468 19.1875 5.8125 C23.21247064 12.25245302 22.81764128 21.59467975 21.171875 28.8671875 C18.40973791 35.32054416 12.65781831 38.5020597 6.515625 41.34765625 C1.03310559 43.43762375 -4.42423544 44.18586845 -10.25 43.3125 C-16.53937828 40.40075079 -18.50069853 36.03681925 -21.33984375 29.9921875 C-23.38574356 23.96863698 -23.04965747 16.8996271 -21.1875 10.875 C-15.37650542 3.18949104 -9.63275383 -0.07184737 0 0 Z " fill="#E26464" transform="translate(141.25,208.6875)"/>
<path d="M0 0 C3.23331052 2.07263495 3.86058291 3.49212346 4.875 7.1875 C3.67166147 12.43061789 0.85714392 14.17724264 -3.1953125 17.53515625 C-7.73295406 21.52297216 -11.28952899 26.25558351 -15 31 C-20.48102172 37.83122464 -20.48102172 37.83122464 -25.375 38.375 C-29 38 -29 38 -31.5 35.9375 C-32.98088833 33.03742701 -33.61474878 31.22604731 -32.92578125 28.00390625 C-31.21915994 24.30982721 -28.34012231 21.60420381 -25.546875 18.6953125 C-22.17457368 15.12646601 -19.17583921 11.3011587 -16.140625 7.4453125 C-11.21715466 1.82105624 -7.5417096 -0.65014738 0 0 Z " fill="#040404" transform="translate(124,277)"/>
<path d="M0 0 C2.4375 1.5625 2.4375 1.5625 4 4 C4.625 7.4375 4.625 7.4375 4 11 C1.5 13.25 1.5 13.25 -0.171875 14.4375 C-2.5151498 16.44029898 -4.01205686 18.70666858 -5.75 21.25 C-9.97127522 27.26409482 -15.30582114 33.65291057 -22 37 C-29.28809789 37.57842047 -29.28809789 37.57842047 -32 35.375 C-33.30335189 32.27953927 -33.47632194 30.33425359 -33 27 C-30.93823341 23.6496293 -28.3069959 21.41199361 -25.3125 18.9375 C-20.769738 15.09818809 -17.55338201 10.53759602 -14.17578125 5.671875 C-10.10770042 0.67624252 -6.41632361 -0.81662301 0 0 Z " fill="#040404" transform="translate(200,158)"/>
<path d="M0 0 C1.6875 2.9375 1.6875 2.9375 1.8125 6.5 C0.46409002 10.62014161 -0.71107162 11.61415762 -4.3125 13.9375 C-8.50920185 14.77149425 -12.71729311 14.79424538 -16.99121094 14.88623047 C-18.62759836 14.92237281 -20.26371254 14.97215157 -21.89941406 15.03173828 C-24.59954767 15.1288338 -27.29872479 15.19401502 -30 15.25 C-31.29176147 15.29495605 -31.29176147 15.29495605 -32.60961914 15.34082031 C-38.66305841 15.39598786 -38.66305841 15.39598786 -41.86328125 13.13671875 C-43.99159982 9.90695229 -43.85230207 7.71611447 -43.3125 3.9375 C-41.30047239 1.3804042 -40.02193844 0.12089798 -36.84570312 -0.70019531 C-35.48348633 -0.79445801 -35.48348633 -0.79445801 -34.09375 -0.890625 C-32.57007813 -1.00664062 -32.57007813 -1.00664062 -31.015625 -1.125 C-29.95859375 -1.186875 -28.9015625 -1.24875 -27.8125 -1.3125 C-26.27335937 -1.42851562 -26.27335937 -1.42851562 -24.703125 -1.546875 C-4.73999307 -2.95131644 -4.73999307 -2.95131644 0 0 Z " fill="#080807" transform="translate(230.3125,221.0625)"/>
<path d="M0 0 C5.12027831 4.20965159 6.66220739 8.59606646 8.671875 14.6484375 C10.28762139 19.13662193 11.73742034 20.9107751 16 23 C17.75932235 26.5186447 16.93091351 30.27634596 16 34 C13.52665208 37.46268708 12.17139865 38.75595861 8 39.625 C3.91756171 38.77449202 2.71495842 37.15577868 0 34 C-1.5982328 31.25209996 -2.90076611 28.4045572 -4.1875 25.5 C-4.52974609 24.75363281 -4.87199219 24.00726563 -5.22460938 23.23828125 C-6.16875659 21.16665726 -7.08986406 19.08675073 -8 17 C-8.40089844 16.08347656 -8.80179688 15.16695313 -9.21484375 14.22265625 C-10.50997407 10.55634207 -10.37049993 7.89024924 -10 4 C-7.317936 -0.12625231 -4.78913194 -0.87963648 0 0 Z " fill="#050404" transform="translate(169,276)"/>
<path d="M0 0 C0.76313004 -0.00524185 1.52626007 -0.0104837 2.31251526 -0.0158844 C3.92553491 -0.02230379 5.53860139 -0.02096861 7.15161133 -0.01245117 C9.61689885 -0.00394767 12.07986374 -0.03268882 14.54492188 -0.06445312 C16.11328056 -0.06606546 17.68164333 -0.06548699 19.25 -0.0625 C19.98552597 -0.07373398 20.72105194 -0.08496796 21.47886658 -0.09654236 C24.93643391 -0.04958516 26.8557259 0.18295375 29.66040039 2.27709961 C31.73745448 5.2027285 31.70418841 6.91737323 31.19140625 10.43359375 C29.4115622 13.56950945 28.66832418 14.27462111 25.19140625 15.43359375 C20.6346341 15.68449827 16.07570068 15.70433865 11.51293945 15.72875977 C9.26517216 15.7460073 7.01886363 15.78991812 4.77148438 15.83398438 C3.33985454 15.84410923 1.90821223 15.85262598 0.4765625 15.859375 C-0.824021 15.87395752 -2.12460449 15.88854004 -3.46459961 15.90356445 C-6.80859375 15.43359375 -6.80859375 15.43359375 -9.23291016 13.53417969 C-11.8675274 10.02190099 -11.28651334 7.73487005 -10.80859375 3.43359375 C-8.35114503 -0.63098141 -4.26084449 -0.01695925 0 0 Z " fill="#020202" transform="translate(66.80859375,230.56640625)"/>
<path d="M0 0 C4.14769917 1.35742882 5.08127503 2.50529208 7.4375 6.125 C8.4140625 9.71875 8.4140625 9.71875 9.0625 13.625 C9.82143205 18.08930615 10.7536706 21.9400851 12.4375 26.125 C12.73828125 28.4765625 12.73828125 28.4765625 12.75 30.75 C12.77513672 31.88308594 12.77513672 31.88308594 12.80078125 33.0390625 C12.338379 35.69414641 11.60140671 36.54857928 9.4375 38.125 C3.86357683 38.83279977 3.86357683 38.83279977 1.4375 38.125 C-5.83847105 30.82177812 -8.40095732 17.84331352 -8.8203125 7.828125 C-8.5625 5.125 -8.5625 5.125 -6.5625 1.75 C-3.5625 0.125 -3.5625 0.125 0 0 Z " fill="#060606" transform="translate(107.5625,156.875)"/>
</svg>
