<svg width="134" height="69" viewBox="0 0 134 69" fill="none" xmlns="http://www.w3.org/2000/svg">
<path d="M125.366 40V33.04H125.756L130.616 37.76V33.04H130.986V40H130.616V38.28L125.736 33.52V40H125.366Z" fill="black"/>
<path d="M117.721 32.89C118.241 32.89 118.721 33.02 119.161 33.28C119.601 33.5333 119.947 33.88 120.201 34.32C120.461 34.76 120.591 35.24 120.591 35.76V37.28C120.591 37.8 120.461 38.28 120.201 38.72C119.947 39.16 119.601 39.51 119.161 39.77C118.721 40.0233 118.241 40.15 117.721 40.15C117.201 40.15 116.721 40.0233 116.281 39.77C115.841 39.51 115.491 39.16 115.231 38.72C114.977 38.28 114.851 37.8 114.851 37.28V35.76C114.851 35.24 114.977 34.76 115.231 34.32C115.491 33.88 115.841 33.5333 116.281 33.28C116.721 33.02 117.201 32.89 117.721 32.89ZM115.221 37.28C115.221 37.7333 115.331 38.1533 115.551 38.54C115.777 38.92 116.081 39.2233 116.461 39.45C116.847 39.67 117.267 39.78 117.721 39.78C118.174 39.78 118.591 39.67 118.971 39.45C119.357 39.2233 119.661 38.92 119.881 38.54C120.107 38.1533 120.221 37.7333 120.221 37.28V35.76C120.221 35.3067 120.107 34.89 119.881 34.51C119.661 34.1233 119.357 33.82 118.971 33.6C118.591 33.3733 118.174 33.26 117.721 33.26C117.267 33.26 116.847 33.3733 116.461 33.6C116.081 33.82 115.777 34.1233 115.551 34.51C115.331 34.89 115.221 35.3067 115.221 35.76V37.28Z" fill="black"/>
<path d="M110.307 33.04V33.41H108.227V39.63H110.307V40H105.797V39.63H107.867V33.41H105.797V33.04H110.307Z" fill="black"/>
<path d="M100.491 33.04V33.41H97.8614V40H97.5014V33.41H94.8714V33.04H100.491Z" fill="black"/>
<path d="M84.9262 37.34C84.9262 37.78 85.0362 38.1867 85.2562 38.56C85.4828 38.9333 85.7828 39.23 86.1562 39.45C86.5362 39.67 86.9462 39.78 87.3862 39.78C87.8395 39.78 88.2495 39.69 88.6162 39.51C88.9828 39.33 89.2695 39.08 89.4762 38.76C89.6895 38.44 89.7995 38.08 89.8062 37.68H90.1662C90.1662 38.14 90.0428 38.56 89.7962 38.94C89.5562 39.3133 89.2228 39.61 88.7962 39.83C88.3762 40.0433 87.9062 40.15 87.3862 40.15C86.8795 40.15 86.4095 40.0233 85.9762 39.77C85.5428 39.5167 85.1995 39.1767 84.9462 38.75C84.6928 38.3167 84.5662 37.8467 84.5662 37.34V35.7C84.5662 35.1933 84.6895 34.7267 84.9362 34.3C85.1895 33.8667 85.5295 33.5233 85.9562 33.27C86.3895 33.0167 86.8595 32.89 87.3662 32.89C87.8795 32.89 88.3462 33 88.7662 33.22C89.1928 33.4333 89.5295 33.73 89.7762 34.11C90.0228 34.4833 90.1462 34.9 90.1462 35.36H89.7862C89.7795 34.96 89.6695 34.6 89.4562 34.28C89.2428 33.96 88.9528 33.71 88.5862 33.53C88.2262 33.35 87.8195 33.26 87.3662 33.26C86.9262 33.26 86.5195 33.37 86.1462 33.59C85.7728 33.81 85.4762 34.1067 85.2562 34.48C85.0362 34.8533 84.9262 35.26 84.9262 35.7V37.34Z" fill="black"/>
<path d="M79.2112 33.04V33.41H77.1312V39.63H79.2112V40H74.7012V39.63H76.7712V33.41H74.7012V33.04H79.2112Z" fill="black"/>
<path d="M66.516 33.04C67.0226 33.04 67.4893 33.1667 67.916 33.42C68.3493 33.6733 68.6926 34.0167 68.946 34.45C69.1993 34.8767 69.326 35.3433 69.326 35.85V37.19C69.326 37.6967 69.1993 38.1667 68.946 38.6C68.6926 39.0267 68.3493 39.3667 67.916 39.62C67.4893 39.8733 67.0226 40 66.516 40H63.946V33.04H66.516ZM68.956 35.85C68.956 35.41 68.846 35.0033 68.626 34.63C68.406 34.2567 68.106 33.96 67.726 33.74C67.3526 33.52 66.946 33.41 66.506 33.41H64.316V39.63H66.506C66.946 39.63 67.3526 39.52 67.726 39.3C68.106 39.08 68.406 38.7833 68.626 38.41C68.846 38.0367 68.956 37.63 68.956 37.19V35.85Z" fill="black"/>
<path d="M54.5118 33.04H59.4118V33.41H54.8818V36.23H58.8218V36.6H54.8818V39.63H59.4118V40H54.5118V33.04Z" fill="black"/>
<path d="M43.8266 40V33.04H44.2166L49.0766 37.76V33.04H49.4466V40H49.0766V38.28L44.1966 33.52V40H43.8266Z" fill="black"/>
<path d="M33.7814 33.04H38.6814V33.41H34.1514V36.23H38.0914V36.6H34.1514V39.63H38.6814V40H33.7814V33.04Z" fill="black"/>
<path d="M19.9272 25.12C21.2472 25.12 22.2972 25.32 23.0772 25.72C24.0172 26.2 24.7372 26.86 25.2372 27.7C25.7572 28.54 26.0172 29.48 26.0172 30.52C26.0172 31.5 25.7572 32.41 25.2372 33.25C24.7172 34.07 24.0072 34.72 23.1072 35.2C24.1872 35.58 25.0972 36.24 25.8372 37.18C26.5772 38.12 26.9472 39.18 26.9472 40.36C26.9472 41.4 26.6772 42.36 26.1372 43.24C25.6172 44.1 24.9172 44.78 24.0372 45.28C23.5972 45.52 23.1072 45.7 22.5672 45.82C22.0272 45.94 21.3072 46 20.4072 46H11.1672V25.12H19.9272Z" fill="black"/>
</svg>
